<svg xmlns="http://www.w3.org/2000/svg" width="204.427" height="45.58" viewBox="0 0 204.427 45.58">
  <g id="Group_3" data-name="Group 3" transform="translate(-98 -26)">
    <g id="Group_1" data-name="Group 1" transform="translate(-911.792 -406.092)">
      <path id="Path_1" data-name="Path 1" d="M1058.772,450.125h-4.458v26.266a6.119,6.119,0,0,1-6.219,6.016h-27.452a6.121,6.121,0,0,1-6.221-6.016V450.125h-4.569a6.371,6.371,0,0,0-.062.844v27.471c0,4.254,4.279,7.7,9.558,7.7h29.926c5.279,0,9.558-3.447,9.558-7.7V450.969a6.256,6.256,0,0,0-.062-.844" transform="translate(0 -13.378)" fill="#505050"/>
      <rect id="Rectangle_3" data-name="Rectangle 3" width="9.006" height="8.153" transform="translate(1022.066 432.092)" fill="#505050"/>
      <rect id="Rectangle_4" data-name="Rectangle 4" width="9.006" height="8.153" transform="translate(1037.83 432.092)" fill="#505050"/>
      <path id="Path_2" data-name="Path 2" d="M1431.3,449.508h4.933V454.1H1431.3Zm.127,10.449h4.933V485.15h-4.933Z" transform="translate(-312.699 -12.92)" fill="#505050"/>
      <path id="Path_3" data-name="Path 3" d="M1463.271,449.508h4.933V454.1h-4.933Zm.128,10.449h4.933V485.15H1463.4Z" transform="translate(-336.416 -12.92)" fill="#505050"/>
      <path id="Path_4" data-name="Path 4" d="M1344.687,462.313a11.634,11.634,0,0,0-6.359,1.89V450.124h-5.355v23.9a11.714,11.714,0,1,0,11.714-11.714m0,18.15a6.436,6.436,0,1,1,6.436-6.436,6.436,6.436,0,0,1-6.436,6.436" transform="translate(-239.754 -13.377)" fill="#505050"/>
      <path id="Path_5" data-name="Path 5" d="M1239.379,450.125v22.306a8.49,8.49,0,0,1-6.459,8.239,12.764,12.764,0,0,1-2.035.159,13.32,13.32,0,0,1-1.988-.146,8.492,8.492,0,0,1-6.507-8.251h0V450.125h-4.933v23.6h.063a13.427,13.427,0,0,0,26.73,0h.063v-23.6Z" transform="translate(-154.058 -13.378)" fill="#505050"/>
      <path id="Path_6" data-name="Path 6" d="M1506.434,532.916v1.529a6.544,6.544,0,0,1,2.039-1.414,5.87,5.87,0,0,1,2.344-.471,6.052,6.052,0,0,1,4.612,2.051,7.443,7.443,0,0,1,1.9,5.262,7.264,7.264,0,0,1-1.962,5.179,6.181,6.181,0,0,1-4.65,2.083,5.775,5.775,0,0,1-2.229-.427,6.8,6.8,0,0,1-2.051-1.395v6.535h-3.452V532.916Zm3.656,2.854a3.632,3.632,0,0,0-2.727,1.121,4.041,4.041,0,0,0-1.083,2.93,4.16,4.16,0,0,0,1.083,2.988,3.6,3.6,0,0,0,2.727,1.14,3.536,3.536,0,0,0,2.682-1.159,4.145,4.145,0,0,0,1.089-2.956,4.1,4.1,0,0,0-1.07-2.924,3.548,3.548,0,0,0-2.7-1.14" transform="translate(-365.876 -74.532)" fill="#505050"/>
      <path id="Path_7" data-name="Path 7" d="M1578.1,532.916h3.478v13.861H1578.1v-1.465a6.82,6.82,0,0,1-2.042,1.395,5.718,5.718,0,0,1-2.221.427,6.17,6.17,0,0,1-4.644-2.083,7.268,7.268,0,0,1-1.96-5.179,7.448,7.448,0,0,1,1.9-5.262,6.042,6.042,0,0,1,4.606-2.051,5.853,5.853,0,0,1,2.341.471,6.392,6.392,0,0,1,2.024,1.414Zm-3.656,2.854a3.516,3.516,0,0,0-2.679,1.14,4.109,4.109,0,0,0-1.067,2.924,4.152,4.152,0,0,0,1.086,2.956,3.518,3.518,0,0,0,2.673,1.159,3.583,3.583,0,0,0,2.717-1.14,4.168,4.168,0,0,0,1.079-2.988,4.049,4.049,0,0,0-1.079-2.93,3.628,3.628,0,0,0-2.73-1.121" transform="translate(-413.544 -74.532)" fill="#505050"/>
      <path id="Path_8" data-name="Path 8" d="M1644.914,532.917h3.465V544.79q0,3.516-1.414,5.172a7.077,7.077,0,0,1-5.72,2.242,10.025,10.025,0,0,1-3.427-.51,5.973,5.973,0,0,1-3.758-3.9h3.835a3.168,3.168,0,0,0,1.312.885,5.434,5.434,0,0,0,1.9.3,5.012,5.012,0,0,0,2.255-.433,2.617,2.617,0,0,0,1.2-1.121,5.676,5.676,0,0,0,.351-2.37,5.765,5.765,0,0,1-1.924,1.319,6.113,6.113,0,0,1-2.28.4,6.267,6.267,0,0,1-4.714-2.013,7.811,7.811,0,0,1,.115-10.4,6.082,6.082,0,0,1,4.408-1.809,5.865,5.865,0,0,1,2.261.439,7.171,7.171,0,0,1,2.134,1.446Zm-3.605,2.892a3.623,3.623,0,0,0-2.714,1.1,3.816,3.816,0,0,0-1.07,2.771,3.869,3.869,0,0,0,1.1,2.841,3.709,3.709,0,0,0,2.751,1.108,3.561,3.561,0,0,0,2.669-1.083,3.9,3.9,0,0,0,1.051-2.841,3.86,3.86,0,0,0-1.057-2.816,3.644,3.644,0,0,0-2.726-1.083" transform="translate(-463.117 -74.533)" fill="#505050"/>
      <path id="Path_9" data-name="Path 9" d="M1707.72,532.559a7.347,7.347,0,0,1,3.688.981,7.192,7.192,0,0,1,3.663,6.293,7.281,7.281,0,0,1-.975,3.669,7.035,7.035,0,0,1-2.656,2.669,7.338,7.338,0,0,1-3.707.962,6.915,6.915,0,0,1-5.09-2.121,7.347,7.347,0,0,1,.274-10.568,6.959,6.959,0,0,1,4.8-1.885m.058,3.274a3.58,3.58,0,0,0-2.7,1.127,4.006,4.006,0,0,0-1.078,2.886,4.078,4.078,0,0,0,1.065,2.93,3.563,3.563,0,0,0,2.7,1.121,3.6,3.6,0,0,0,2.718-1.134,4.47,4.47,0,0,0,.02-5.816,3.6,3.6,0,0,0-2.725-1.115" transform="translate(-512.432 -74.532)" fill="#505050"/>
      <path id="Path_10" data-name="Path 10" d="M1773.187,534.852l-2.153,2.153a3.639,3.639,0,0,0-2.382-1.3,1.5,1.5,0,0,0-.918.248.747.747,0,0,0-.331.618.759.759,0,0,0,.21.516,3.915,3.915,0,0,0,1.038.643l1.274.637a7.505,7.505,0,0,1,2.764,2.026,4.219,4.219,0,0,1-.6,5.5,5.193,5.193,0,0,1-3.637,1.236,5.781,5.781,0,0,1-4.841-2.37l2.14-2.331a4.947,4.947,0,0,0,1.433,1.153,3.175,3.175,0,0,0,1.459.44,1.74,1.74,0,0,0,1.108-.331.959.959,0,0,0,.42-.764q0-.8-1.516-1.567l-1.172-.586q-3.364-1.694-3.364-4.242a3.682,3.682,0,0,1,1.268-2.809,4.6,4.6,0,0,1,3.242-1.165,5.622,5.622,0,0,1,4.561,2.293" transform="translate(-559.223 -74.532)" fill="#505050"/>
    </g>
  </g>
</svg>
