<svg width="74" height="26" viewBox="0 0 74 26" fill="none" xmlns="http://www.w3.org/2000/svg">
<g clip-path="url(#clip0_9_3212)">
<path d="M65.8068 25.1721V9.68592H69.0123V25.1721H65.8068ZM70.7918 25.1721V9.68592H73.9974V25.1721H70.7918ZM57.0114 10.8537C55.6578 10.8536 54.3334 11.2572 53.1994 12.0153V3.36171H49.9895V18.0542C49.9895 19.478 50.401 20.8698 51.1721 22.0536C51.9432 23.2374 53.0392 24.1601 54.3215 24.705C55.6038 25.2498 57.0148 25.3924 58.3761 25.1146C59.7374 24.8368 60.9878 24.1512 61.9692 23.1445C62.9507 22.1377 63.619 20.855 63.8898 19.4586C64.1606 18.0622 64.0216 16.6148 63.4904 15.2994C62.9593 13.984 62.0598 12.8597 60.9058 12.0687C59.7518 11.2777 58.395 10.8555 57.007 10.8555L57.0114 10.8537ZM57.0114 22.0108C56.2485 22.011 55.5027 21.7791 54.8683 21.3445C54.2339 20.9098 53.7394 20.2919 53.4473 19.569C53.1552 18.846 53.0787 18.0504 53.2274 17.2829C53.3762 16.5153 53.7435 15.8102 54.2828 15.2568C54.8222 14.7033 55.5095 14.3264 56.2577 14.1737C57.0059 14.0209 57.7815 14.0992 58.4864 14.3987C59.1912 14.6981 59.7936 15.2053 60.2175 15.8559C60.6413 16.5066 60.8676 17.2716 60.8676 18.0542C60.8667 19.1028 60.46 20.1081 59.737 20.8494C59.0139 21.5906 58.0336 22.0071 57.0114 22.0073V22.0108ZM48.2151 3.36171V17.0731C48.2151 19.2621 47.3674 21.3614 45.8585 22.9093C44.3496 24.4571 42.3031 25.3267 40.1692 25.3267C38.0353 25.3267 35.9887 24.4571 34.4798 22.9093C32.9709 21.3614 32.1232 19.2621 32.1232 17.0731V3.36171H35.3288V17.0731C35.3288 18.3892 35.8385 19.6515 36.7457 20.5822C37.653 21.5129 38.8835 22.0357 40.1666 22.0357C41.4496 22.0357 42.6802 21.5129 43.5874 20.5822C44.4947 19.6515 45.0044 18.3892 45.0044 17.0731V3.36171H48.2151ZM65.8068 6.34163V3.36171H69.0123V6.34163H65.8068ZM70.7918 6.34163V3.36171H73.9974V6.34163H70.7918ZM7.30522 5.51155V0.5H12.7018V5.51155H7.30522ZM16.7486 5.51155V0.5H22.1452V5.51155H16.7486ZM29.4565 3.36171V20.2574C29.4565 21.648 28.918 22.9818 27.9594 23.9651C27.0008 24.9484 25.7006 25.5009 24.345 25.5009H5.11157C3.7559 25.5009 2.45575 24.9484 1.49715 23.9651C0.538539 22.9818 0 21.648 0 20.2574V3.36171H3.19084V20.2574C3.19129 20.7797 3.39383 21.2805 3.75397 21.6498C4.1141 22.019 4.60238 22.2266 5.11157 22.2268H24.345C24.854 22.2263 25.3421 22.0187 25.702 21.6495C26.0619 21.2802 26.2644 20.7796 26.2648 20.2574V3.36171H29.4565Z" fill="#00A3FA"/>
</g>
<defs>
<clipPath id="clip0_9_3212">
<rect width="74" height="25" fill="white" transform="translate(0 0.5)"/>
</clipPath>
</defs>
</svg>
